<?xml version="1.0" standalone="no"?><!DOCTYPE svg PUBLIC "-//W3C//DTD SVG 1.1//EN" "http://www.w3.org/Graphics/SVG/1.1/DTD/svg11.dtd"><svg height="1024" node-id="1" sillyvg="true" template-height="1024" template-width="1024" version="1.1" viewBox="0 0 1024 1024" width="1024" xmlns="http://www.w3.org/2000/svg" xmlns:xlink="http://www.w3.org/1999/xlink"><defs node-id="16"><linearGradient gradientUnits="userSpaceOnUse" id="paint0_linear_2804_3741" node-id="12" spreadMethod="pad" x1="621.427" x2="621.427" y1="767.477" y2="218.093"><stop offset="0" stop-color="#b7d2ed"></stop><stop offset="1" stop-color="#9ab4cf"></stop></linearGradient></defs><path d="M 780.67 425.86 L 460.31 425.86 C 454.08 425.86 449.03 430.91 449.03 437.14 L 449.03 757.50 C 449.03 763.73 454.08 768.78 460.31 768.78 L 780.67 768.78 C 786.90 768.78 791.96 763.73 791.96 757.50 L 791.96 437.14 C 791.96 430.91 786.90 425.86 780.67 425.86 Z" fill="url(#paint0_linear_2804_3741)" fill-rule="nonzero" node-id="25" stroke="none" target-height="342.92502" target-width="342.92603" target-x="449.029" target-y="425.858"></path><path d="M 449.04 425.86 L 260.13 425.86 L 260.13 768.78 L 449.04 768.78 L 449.04 425.86 Z" fill="#d7eafe" fill-rule="nonzero" node-id="27" stroke="none" target-height="342.92502" target-width="188.90298" target-x="260.135" target-y="425.858"></path><path d="M 260.13 425.86 L 162.00 530.97 L 375.14 530.97 L 449.03 425.86 L 260.13 425.86 Z" fill="#b7d2ed" fill-rule="nonzero" node-id="29" stroke="none" target-height="105.11398" target-width="287.03" target-x="162" target-y="425.858"></path><path d="M 791.96 425.86 L 862.00 532.33 L 519.58 532.33 L 449.03 425.35 L 791.96 425.86 Z" fill="#d7eafe" fill-rule="nonzero" node-id="31" stroke="none" target-height="106.979004" target-width="412.971" target-x="449.029" target-y="425.354"></path><path d="M 365.04 330.54 L 429.90 330.54" fill="none" node-id="33" stroke="#d7eafe" stroke-linecap="round" stroke-width="11.2799" target-height="0" target-width="64.860016" target-x="365.037" target-y="330.539"></path><g node-id="49"><path d="M 675.77 330.54 L 610.92 330.54" fill="none" group-id="1" node-id="37" stroke="#d7eafe" stroke-linecap="round" stroke-width="11.2799" target-height="0" target-width="64.85956" target-x="610.91547" target-y="330.53903"></path></g><path d="M 415.31 237.48 L 461.18 283.34" fill="none" node-id="40" stroke="#d7eafe" stroke-linecap="round" stroke-width="11.2799" target-height="45.86299" target-width="45.863007" target-x="415.313" target-y="237.48"></path><path d="M 587.30 295.11 L 628.99 245.43" fill="none" group-id="2" node-id="44" stroke="#d7eafe" stroke-linecap="round" stroke-width="11.279899" target-height="49.685257" target-width="41.69098" target-x="587.3007" target-y="245.42558"></path><path d="M 520.14 203.64 L 520.14 268.50" fill="none" node-id="47" stroke="#d7eafe" stroke-linecap="round" stroke-width="11.2799" target-height="64.85899" target-width="0" target-x="520.136" target-y="203.64"></path></svg>